<svg width="165" height="35" viewBox="0 0 165 35" fill="none" xmlns="http://www.w3.org/2000/svg">
<path fill-rule="evenodd" clip-rule="evenodd" d="M45.206 17.7473C45.206 26.516 40.4549 31.962 32.8036 31.962H4.74219L22.0855 5.79833H4.74219L6.18879 3.61433H26.1031L8.7712 29.778H32.8036C39.2322 29.778 43.067 25.2793 43.067 17.7473C43.067 10.1523 39.3259 5.79833 32.8036 5.79833H27.0766L28.5232 3.61433H32.8036C40.5714 3.61433 45.206 8.897 45.206 17.7473Z" fill="#30B587"/>
<path d="M56.4658 25.9607V22.6847L64.7707 13.3163H56.7355V9.55266H70.4383V12.8287L62.1037 22.197H70.4383V25.963H56.4658V25.9607Z" fill="#262424"/>
<path d="M89.1457 19.4437H78.0733C78.5189 21.5343 79.9427 22.6263 81.9629 22.6263C83.4758 22.6263 84.575 22.141 85.8228 20.9603L88.4052 23.2937C86.9198 25.172 84.783 26.3247 81.9035 26.3247C77.1249 26.3247 73.5918 22.8993 73.5918 17.9293V17.8687C73.5918 13.2323 76.8278 9.41266 81.4579 9.41266C86.7712 9.41266 89.2051 13.6243 89.2051 18.2327V18.2933C89.2051 18.746 89.1754 19.019 89.1457 19.4437ZM81.4579 13.1087C79.5885 13.1087 78.3704 14.4737 78.0139 16.5643H84.8104C84.5453 14.504 83.357 13.1087 81.4579 13.1087Z" fill="#262424"/>
<path d="M102.515 25.9607V16.898C102.515 14.7163 101.505 13.594 99.7844 13.594C98.0636 13.594 96.9644 14.7163 96.9644 16.898V25.9607H92.4531V9.71599H96.9644V12.019C98.0042 10.654 99.3388 9.41266 101.624 9.41266C105.038 9.41266 107.027 11.7157 107.027 15.4443V25.9607H102.515Z" fill="#262424"/>
<path d="M123.869 3.03799V12.5557C122.299 10.423 120.279 9.34033 117.852 9.34033C114.124 9.34033 110.273 12.4483 110.273 17.654V17.7123C110.273 22.8783 114.124 25.9677 117.852 25.9677C120.235 25.9677 122.255 24.8477 123.869 22.631V25.6013H125.759V3.03799H123.869ZM123.956 17.6867C123.956 21.6463 120.866 24.0987 118 24.0987C114.737 24.0987 112.28 21.3267 112.28 17.654V17.5933C112.28 13.776 114.579 11.2117 118 11.2117C120.864 11.2117 123.956 13.6617 123.956 17.6237V17.6867Z" fill="#262424"/>
<path d="M136.406 9.34033C132.256 9.34033 129.004 12.978 129.004 17.6237V17.6867C129.004 22.407 132.286 25.97 136.639 25.97C139.242 25.97 141.162 25.0763 143.063 22.9903L143.216 22.8223L141.879 21.6183L141.733 21.7747C140.266 23.3823 138.666 24.1313 136.701 24.1313C133.645 24.1313 131.33 21.8237 130.999 18.4823H143.511L143.534 18.291C143.568 18.032 143.568 17.934 143.568 17.7147V17.6563C143.568 12.7587 140.62 9.34033 136.406 9.34033ZM131.004 16.7067C131.349 13.4727 133.568 11.1487 136.344 11.1487C139.804 11.1487 141.292 14.0887 141.539 16.7067H131.004Z" fill="#262424"/>
<path d="M160.258 9.63899L153.132 25.97H151.569L144.443 9.63899H146.658L152.353 23.345L158.105 9.63899H160.258Z" fill="#262424"/>
</svg>
